<svg width="50" height="50" viewBox="0 0 50 50" fill="none" xmlns="http://www.w3.org/2000/svg">
<path d="M35.3541 25.5209V34.8959C35.3541 42.7084 32.2291 45.8334 24.4166 45.8334H15.0416C7.22913 45.8334 4.10413 42.7084 4.10413 34.8959V25.5209C4.10413 17.7084 7.22913 14.5834 15.0416 14.5834H24.4166C32.2291 14.5834 35.3541 17.7084 35.3541 25.5209Z" stroke="#DF5E63" stroke-width="3.125" stroke-linecap="round" stroke-linejoin="round"/>
<path d="M45.7708 15.625C45.7708 21.6041 41.2083 26.5 35.3541 27.0208V25.5208C35.3541 17.7083 32.2291 14.5833 24.4166 14.5833H22.9166C23.4375 8.72913 28.3333 4.16663 34.3125 4.16663C40.125 4.16663 44.9166 8.47913 45.6458 14.1041C45.7291 14.5833 45.7708 15.1041 45.7708 15.625Z" stroke="#DF5E63" stroke-width="3.125" stroke-linecap="round" stroke-linejoin="round"/>
</svg>
