<svg width="23" height="23" viewBox="0 0 23 23" fill="none" xmlns="http://www.w3.org/2000/svg">
<path d="M22.5109 10.2746H15.8944L21.6243 6.96788L20.488 4.99978L14.7574 8.30649L18.0649 2.57944L16.0963 1.44344L12.7881 7.16904V0.557068H10.5141V7.16976L7.20585 1.44344L5.23655 2.57944L8.54405 8.30504L2.8149 4.99978L1.67791 6.96788L7.40778 10.2746H0.791321V12.5473H7.40706L1.67791 15.8541L2.81418 17.8221L8.54477 14.5154L5.23655 20.2425L7.20513 21.3785L10.5141 15.6521V22.2641H12.7881V15.5103L16.1571 21.3423L18.0034 20.2772L14.6336 14.4438L20.4865 17.8214L21.6235 15.8533L15.8944 12.5466H22.5101V10.2746H22.5109ZM11.6511 14.5002C11.2451 14.5003 10.8431 14.4204 10.4681 14.2652C10.0931 14.1099 9.75229 13.8823 9.46523 13.5953C9.17818 13.3084 8.95042 12.9678 8.79505 12.5928C8.63966 12.2179 8.55969 11.8161 8.55961 11.4103C8.55954 11.0044 8.63944 10.6025 8.79476 10.2276C8.9501 9.85263 9.1777 9.51188 9.46475 9.22491C9.75172 8.93794 10.0924 8.71026 10.4675 8.55489C10.8425 8.39954 11.2444 8.31959 11.6504 8.31951C12.4701 8.31944 13.2564 8.6449 13.8362 9.22442C14.416 9.80395 14.7418 10.5899 14.7418 11.4095C14.7419 12.2291 14.4164 13.0152 13.8367 13.5948C13.2571 14.1745 12.4709 14.5001 11.6511 14.5002Z" fill="url(#paint0_linear_3001_63)"/>
<defs>
<linearGradient id="paint0_linear_3001_63" x1="11.6511" y1="0.557068" x2="11.6511" y2="22.2641" gradientUnits="userSpaceOnUse">
<stop stop-color="#3171DE"/>
<stop offset="1" stop-color="#704AF2"/>
</linearGradient>
</defs>
</svg>
